<?xml version="1.0" encoding="UTF-8" standalone="no"?>
<!-- Created with Inkscape (http://www.inkscape.org/) -->

<svg
   width="12.6mm"
   height="12.6mm"
   viewBox="0 0 12.6 12.6"
   version="1.1"
   id="svg5"
   inkscape:version="1.1 (c4e8f9e, 2021-05-24)"
   sodipodi:docname="logo.svg"
   inkscape:export-filename="/Users/dave/workspace/allthethings/logo.png"
   inkscape:export-xdpi="241.90475"
   inkscape:export-ydpi="241.90475"
   xmlns:inkscape="http://www.inkscape.org/namespaces/inkscape"
   xmlns:sodipodi="http://sodipodi.sourceforge.net/DTD/sodipodi-0.dtd"
   xmlns="http://www.w3.org/2000/svg"
   xmlns:svg="http://www.w3.org/2000/svg">
  <sodipodi:namedview
     id="namedview7"
     pagecolor="#ffffff"
     bordercolor="#666666"
     borderopacity="1.0"
     inkscape:pageshadow="2"
     inkscape:pageopacity="0.0"
     inkscape:pagecheckerboard="0"
     inkscape:document-units="mm"
     showgrid="false"
     fit-margin-top="0"
     fit-margin-left="0"
     fit-margin-right="0"
     fit-margin-bottom="0"
     inkscape:zoom="2.4255155"
     inkscape:cx="-29.065986"
     inkscape:cy="83.899691"
     inkscape:window-width="1792"
     inkscape:window-height="1067"
     inkscape:window-x="0"
     inkscape:window-y="25"
     inkscape:window-maximized="1"
     inkscape:current-layer="layer1" />
  <defs
     id="defs2" />
  <g
     inkscape:label="Layer 1"
     inkscape:groupmode="layer"
     id="layer1"
     transform="translate(-122.72045,-139.90352)">
    <g
       style="fill-opacity:1"
       id="world"
       transform="matrix(0.4469,0,0,0.4469,123.78252,140.78799)" />
    <g
       id="g3437"
       transform="translate(-0.65252811,-0.59081311)">
      <path
         d="m 17.358166,6.9581658 v 0.41 c 0,1.1000004 -0.9,2.0000003 -2,2.0000003 h -2 v 1.9999999 c 0,0.55 -0.45,1 -1,1 h -2 v 2 h 6 c 0.55,0 1,0.45 1,1 v 3 h 1 c 0.89,0 1.64,0.59 1.9,1.4 1.3,-1.42 2.11,-3.32 2.11,-5.4 0,-3.35 -2.08,-6.2299998 -5.01,-7.4100002 z m -6,11.4100002 v -1 l -4.7800002,-4.78 c -0.13,0.57 -0.21,1.17 -0.21,1.78 0,4.07 3.0600003,7.43 6.9900002,7.93 v -1.93 c -1.1,0 -2,-0.9 -2,-2 z"
         opacity="0.3"
         id="worldBackground"
         style="opacity:1;fill:#d8e6f0;fill-opacity:1"
         transform="matrix(0.44690001,0,0,0.44690001,123.78252,140.78799)" />
      <path
         d="m 14.368166,4.3681658 c -5.5199999,0 -10.0000002,4.4800003 -10.0000002,10.0000002 0,5.52 4.4800003,10 10.0000002,10 5.52,0 10,-4.48 10,-10 0,-5.5199999 -4.48,-10.0000002 -10,-10.0000002 z m -1.01,17.9300002 c -3.9299999,-0.5 -6.9900002,-3.86 -6.9900002,-7.93 0,-0.61 0.08,-1.21 0.21,-1.78 l 4.7800002,4.78 v 1 c 0,1.1 0.9,2 2,2 z m 6.9,-2.53 c -0.26,-0.81 -1,-1.4 -1.9,-1.4 h -1 v -3 c 0,-0.55 -0.45,-1 -1,-1 h -6 v -2 h 2 c 0.55,0 1,-0.45 1,-1 V 9.3681661 h 2 c 1.1,0 2,-0.8999999 2,-2.0000003 v -0.41 c 2.93,1.1800004 5.01,4.0600002 5.01,7.4100002 0,2.08 -0.81,3.98 -2.11,5.4 z"
         id="worldBorder"
         style="fill:#7eacce;fill-opacity:1"
         transform="matrix(0.44690001,0,0,0.44690001,123.78252,140.78799)" />
      <g
         id="background"
         style="fill:#f0e2d8;fill-opacity:1"
         transform="translate(1.0583333,1.0583333)">
        <path
           d="m 127.93446,149.08362 -0.41528,-0.0299 -0.0814,-0.40713 c -0.13572,-0.69756 -0.74913,-1.2024 -1.46025,-1.2024 -0.55913,0 -1.06397,0.30942 -1.32454,0.80341 l -0.13571,0.25785 -0.29042,0.0298 c -0.54827,0.0597 -0.96355,0.52385 -0.96355,1.08026 0,0.59984 0.48585,1.08569 1.08569,1.08569 h 3.52848 c 0.44784,0 0.81426,-0.36642 0.81426,-0.81427 0,-0.4207 -0.33113,-0.77626 -0.75726,-0.80341 z m -2.4998,1.34626 -0.94997,-0.94998 0.3827,-0.3827 0.56727,0.56727 1.24854,-1.24854 0.38271,0.3827 z"
           opacity="1"
           id="cloudBackground"
           style="fill:#f0e2d8;fill-opacity:1;stroke-width:0.271421" />
        <path
           d="m 126.88657,144.66602 h 3.70416 v -3.70416 h -3.70416 z m 0.63764,-1.96056 0.68527,0.68263 1.74361,-1.74361 0.37306,0.37571 -2.11667,2.11667 -1.05833,-1.05834 z"
           opacity="1"
           id="taskBackground"
           style="fill:#f0e2d8;fill-opacity:1;stroke-width:0.264583" />
        <path
           d="m 132.65675,146.80598 h -1.85208 v 4.23334 h 3.175 v -2.91042 h -1.32292 z m 0.79375,3.70417 h -2.11666 v -0.52917 h 2.11666 z m 0,-1.5875 v 0.52917 h -2.11666 v -0.52917 z"
           opacity="1"
           id="fileBackground"
           style="display:inline;fill:#f0e2d8;fill-opacity:1;stroke-width:0.264583" />
      </g>
      <g
         id="border"
         style="fill:#cea07e;fill-opacity:1"
         transform="translate(1.0583333,1.0583333)">
        <path
           d="m 127.97246,148.54078 c -0.18457,-0.9364 -1.00698,-1.63938 -1.99495,-1.63938 -0.78441,0 -1.46568,0.44513 -1.80496,1.09654 -0.81697,0.0868 -1.4521,0.77898 -1.4521,1.61767 0,0.89841 0.73012,1.62853 1.62853,1.62853 h 3.52848 c 0.74912,0 1.35711,-0.60798 1.35711,-1.35711 0,-0.71655 -0.55642,-1.29739 -1.26211,-1.34625 z m -0.095,2.16052 h -3.52848 c -0.59984,0 -1.08569,-0.48585 -1.08569,-1.08569 0,-0.55641 0.41528,-1.02054 0.96626,-1.07754 l 0.29042,-0.0299 0.13572,-0.25785 c 0.25785,-0.4967 0.76269,-0.80612 1.32182,-0.80612 0.71112,0 1.32453,0.50484 1.46296,1.2024 l 0.0814,0.40713 0.41527,0.0299 c 0.42342,0.0272 0.75455,0.38271 0.75455,0.80341 0,0.44785 -0.36642,0.81427 -0.81426,0.81427 z m -2.4428,-1.03683 -0.56727,-0.56727 -0.3827,0.3827 0.94997,0.94998 1.63125,-1.63125 -0.38271,-0.3827 z"
           id="cloudBorder"
           style="fill-opacity:1;stroke-width:0.271421" />
        <path
           d="m 130.32615,142.02019 -0.37306,-0.37571 -1.74361,1.74361 -0.68527,-0.68263 -0.37306,0.37306 1.05833,1.05834 z m 0.26458,-1.5875 h -1.10596 c -0.11112,-0.30692 -0.40216,-0.52917 -0.74612,-0.52917 -0.34396,0 -0.635,0.22225 -0.74613,0.52917 h -1.10595 c -0.0371,0 -0.0714,0.003 -0.10584,0.0106 -0.10318,0.0212 -0.19579,0.0741 -0.26723,0.14552 -0.0476,0.0476 -0.0873,0.10584 -0.11377,0.16934 -0.0265,0.0635 -0.0423,0.12964 -0.0423,0.20373 v 3.70416 c 0,0.0714 0.0159,0.14288 0.0423,0.20638 0.0265,0.0635 0.0661,0.11906 0.11377,0.16933 0.0714,0.0714 0.16405,0.12436 0.26723,0.14552 0.0344,0.005 0.0688,0.008 0.10584,0.008 h 3.70416 c 0.29104,0 0.52917,-0.23813 0.52917,-0.52917 v -3.70416 c 0,-0.29105 -0.23813,-0.52917 -0.52917,-0.52917 z m -1.85208,-0.0662 c 0.10848,0 0.19844,0.09 0.19844,0.19844 0,0.10848 -0.09,0.19844 -0.19844,0.19844 -0.10848,0 -0.19844,-0.09 -0.19844,-0.19844 0,-0.10848 0.09,-0.19844 0.19844,-0.19844 z m 1.85208,4.29948 h -3.70416 v -3.70416 h 3.70416 z"
           id="taskBorder"
           style="fill-opacity:1;stroke-width:0.264583" />
        <path
           d="m 131.33384,149.98098 h 2.11666 v 0.52917 h -2.11666 z m 0,-1.05833 h 2.11666 v 0.52917 h -2.11666 z m 1.5875,-2.64583 h -2.11667 c -0.29104,0 -0.52917,0.23812 -0.52917,0.52916 v 4.23334 c 0,0.29104 0.23548,0.52916 0.52652,0.52916 h 3.17765 c 0.29104,0 0.52917,-0.23812 0.52917,-0.52916 v -3.175 z m 1.05833,4.7625 h -3.175 v -4.23334 h 1.85208 v 1.32292 h 1.32292 z"
           id="fileBorder"
           style="display:inline;fill-opacity:1;stroke-width:0.264583" />
      </g>
    </g>
  </g>
</svg>
