<?xml version="1.0" encoding="UTF-8" standalone="no"?>
<svg
   xmlns:dc="http://purl.org/dc/elements/1.1/"
   xmlns:cc="http://creativecommons.org/ns#"
   xmlns:rdf="http://www.w3.org/1999/02/22-rdf-syntax-ns#"
   xmlns:svg="http://www.w3.org/2000/svg"
   xmlns="http://www.w3.org/2000/svg"
   xmlns:xlink="http://www.w3.org/1999/xlink"
   xmlns:sodipodi="http://sodipodi.sourceforge.net/DTD/sodipodi-0.dtd"
   xmlns:inkscape="http://www.inkscape.org/namespaces/inkscape"
   version="1.1"
   width="90"
   height="90"
   id="svg2"
   sodipodi:docname="Icon.svg"
   viewBox="0 0 90 90"
   inkscape:version="1.0.2 (e86c8708, 2021-01-15)">
  <metadata
     id="metadata134">
    <rdf:RDF>
      <cc:Work
         rdf:about="">
        <dc:format>image/svg+xml</dc:format>
        <dc:type
           rdf:resource="http://purl.org/dc/dcmitype/StillImage" />
        <dc:title></dc:title>
      </cc:Work>
    </rdf:RDF>
  </metadata>
  <sodipodi:namedview
     pagecolor="#ffffff"
     bordercolor="#666666"
     borderopacity="1"
     objecttolerance="10"
     gridtolerance="10"
     guidetolerance="10"
     inkscape:pageopacity="0"
     inkscape:pageshadow="2"
     inkscape:window-width="1792"
     inkscape:window-height="1067"
     id="namedview132"
     showgrid="false"
     fit-margin-left="0"
     fit-margin-right="0.1"
     lock-margins="false"
     fit-margin-top="0"
     fit-margin-bottom="0"
     inkscape:zoom="6.2421739"
     inkscape:cx="112.32812"
     inkscape:cy="62.132246"
     inkscape:window-x="0"
     inkscape:window-y="25"
     inkscape:window-maximized="1"
     inkscape:current-layer="svg2" />
  <defs
     id="defs6">
    <linearGradient
       id="linearGradient3703">
      <stop
         id="stop3705"
         style="stop-color:#e4bc98;stop-opacity:1"
         offset="0" />
      <stop
         id="stop3707"
         style="stop-color:#f6daaa;stop-opacity:0"
         offset="1" />
    </linearGradient>
    <linearGradient
       id="linearGradient3666">
      <stop
         id="stop3668"
         style="stop-color:#363433;stop-opacity:1"
         offset="0" />
      <stop
         id="stop3670"
         style="stop-color:#363433;stop-opacity:0"
         offset="1" />
    </linearGradient>
    <linearGradient
       id="linearGradient3652">
      <stop
         id="stop3654"
         style="stop-color:#ffffff;stop-opacity:1"
         offset="0" />
      <stop
         id="stop3656"
         style="stop-color:#ffffff;stop-opacity:0"
         offset="1" />
    </linearGradient>
    <linearGradient
       id="linearGradient3642">
      <stop
         id="stop3644"
         style="stop-color:#f6daaa;stop-opacity:1"
         offset="0" />
      <stop
         id="stop3646"
         style="stop-color:#e4bc98;stop-opacity:1"
         offset="1" />
    </linearGradient>
    <linearGradient
       id="linearGradient3592">
      <stop
         id="stop3594"
         style="stop-color:#8a7ab9;stop-opacity:1"
         offset="0" />
      <stop
         id="stop3596"
         style="stop-color:#b888b6;stop-opacity:1"
         offset="1" />
    </linearGradient>
    <linearGradient
       x1="148"
       y1="33"
       x2="148"
       y2="122"
       id="linearGradient3598"
       xlink:href="#linearGradient3592"
       gradientUnits="userSpaceOnUse"
       gradientTransform="matrix(1.0112361,0,0,1.011236,-59.662938,-33.370797)" />
    <linearGradient
       x1="41.975975"
       y1="88.198303"
       x2="34.957966"
       y2="96.023994"
       id="linearGradient3648"
       xlink:href="#linearGradient3642"
       gradientUnits="userSpaceOnUse"
       gradientTransform="translate(-5.0000002,-32)" />
    <linearGradient
       x1="53.223339"
       y1="51.557507"
       x2="50.293129"
       y2="51.232285"
       id="linearGradient3672"
       xlink:href="#linearGradient3666"
       gradientUnits="userSpaceOnUse"
       gradientTransform="translate(-5.0000002,-32)" />
    <radialGradient
       cx="31.249113"
       cy="66.878647"
       r="9.7896147"
       fx="31.249113"
       fy="66.878647"
       id="radialGradient3711"
       xlink:href="#linearGradient3703"
       gradientUnits="userSpaceOnUse"
       gradientTransform="matrix(0.58653594,0.29353285,-1.1940084,2.3858619,88.61742,-144.22316)" />
    <radialGradient
       cx="79.978813"
       cy="69.120766"
       r="5.2966104"
       fx="79.978813"
       fy="69.120766"
       id="radialGradient3919"
       xlink:href="#linearGradient3652"
       gradientUnits="userSpaceOnUse"
       gradientTransform="matrix(1.5765759,0,0,1.5765759,-50.978021,-72.844055)" />
  </defs>
  <rect
     width="89.000008"
     height="89.000008"
     rx="2.0000005"
     ry="2"
     x="0.49999601"
     y="0.49999601"
     id="rect2818"
     style="fill:url(#linearGradient3598);fill-opacity:1;stroke:#625874;stroke-width:0.999992;stroke-opacity:1" />
  <path
     d="M 29.9375,62.75 C 7.5469978,62.75 5.6060308,84.67107 5.4374998,89 H 52.625 C 52.71687,83.97284 51.825201,62.75 29.9375,62.75 Z"
     id="path3724"
     style="color:#000000;display:inline;overflow:visible;visibility:visible;fill:#363433;fill-opacity:1;fill-rule:nonzero;stroke:none;stroke-width:1;marker:none;enable-background:accumulate" />
  <path
     d="m 69.748411,26.130297 c 0.204833,12.129768 -14.843585,-5.27591 -12.910488,-12.579449 1.273856,-1.250112 2.557206,-2.336315 4.757972,-2.478313 1.810841,0.169826 6.663829,8.116521 8.152516,15.057762 z"
     id="path3606"
     style="color:#000000;display:inline;overflow:visible;visibility:visible;fill:#f6daaa;fill-opacity:1;fill-rule:nonzero;stroke:#363433;stroke-width:1.3;stroke-linecap:square;stroke-linejoin:miter;stroke-miterlimit:4;stroke-dasharray:none;stroke-dashoffset:0;stroke-opacity:1;marker:none;enable-background:accumulate" />
  <path
     d="m 37.27357,14.709481 c -12.01865,1.503661 -14.097239,11.979224 -13.076006,15.790518 3.379531,12.00565 4.965572,20.162348 5.07316,33.861064 2.048688,2.168687 7.757805,4.618887 11.280124,1.096567 C 39.470804,57.303436 46.26997,54.968895 56.573093,55.725106 68.82931,56.624667 84.64513,53.723149 84.64513,42.086335 83.67966,34.753099 75.213193,29.315106 62.068326,21.760593"
     id="path3610"
     style="color:#000000;display:inline;overflow:visible;visibility:visible;fill:url(#linearGradient3648);fill-opacity:1;fill-rule:nonzero;stroke:#363433;stroke-width:1.3;stroke-linecap:square;stroke-linejoin:miter;stroke-miterlimit:4;stroke-dasharray:none;stroke-dashoffset:0;stroke-opacity:1;marker:none;enable-background:accumulate" />
  <path
     d="M 32.208686,20.436441 C 44.640901,5.1254698 55.98813,3.2082578 64.385593,28.579979"
     id="path3608"
     style="color:#000000;display:inline;overflow:visible;visibility:visible;fill:#f6daaa;fill-opacity:1;fill-rule:nonzero;stroke:none;stroke-width:1;marker:none;enable-background:accumulate" />
  <path
     d="m 72.1875,28.3125 c -3.165706,1.191392 -5.40625,4.230125 -5.40625,7.8125 0,4.611857 3.700642,8.34375 8.3125,8.34375 3.783165,0 6.97468,-2.519713 8,-5.96875 -1.11342,-2.127317 -2.92816,-4.162109 -5.40625,-6.21875 -1.574929,-1.307081 -3.429473,-2.615193 -5.5,-3.96875 z"
     id="path3917"
     style="fill:url(#radialGradient3919);fill-opacity:1;stroke:none" />
  <path
     d="m 38.125,52.9375 c -0.501271,0 -1.079764,0.918058 -0.1875,0.84375 4.502472,-0.374966 8.845437,-0.282101 12.59375,2.34375 l 0.34375,-0.0625 0.46875,-0.59375 0.101007,-0.157983 C 47.342366,52.697132 42.816238,52.46443 38.125,52.9375 Z"
     id="path3660"
     style="color:#000000;font-style:normal;font-variant:normal;font-weight:normal;font-stretch:normal;font-size:medium;line-height:normal;font-family:ALPHA-Demo;-inkscape-font-specification:ALPHA-Demo;text-indent:0;text-align:start;text-decoration:none;text-decoration-line:none;letter-spacing:normal;word-spacing:normal;text-transform:none;writing-mode:lr-tb;direction:ltr;text-anchor:start;display:inline;overflow:visible;visibility:visible;fill:#363433;fill-opacity:1;fill-rule:nonzero;stroke:none;stroke-width:0.5;marker:none;enable-background:accumulate" />
  <path
     d="m 43.501233,34.246093 c -0.909411,-0.909411 -6.101149,-17.076458 2.808952,-19.615846 5.708867,-1.627033 12.546651,10.920544 12.546651,16.151473 0,5.230928 -10.676308,7.737039 -15.355603,3.464373 z"
     id="path3664"
     style="color:#000000;display:inline;overflow:visible;visibility:visible;fill:#ffffff;fill-opacity:1;fill-rule:nonzero;stroke:url(#linearGradient3672);stroke-width:0.75;stroke-linecap:square;stroke-linejoin:miter;stroke-miterlimit:4;stroke-dasharray:none;stroke-dashoffset:0;stroke-opacity:1;marker:none;enable-background:accumulate" />
  <path
     d="m 52.08619,22.095709 a 4.0147228,5.7075535 9.4999181 1 1 -7.892583,-1.480422 4.0147228,5.7075535 9.4999181 1 1 7.892583,1.480422 z"
     id="path3674"
     style="fill:#343231;fill-opacity:1;stroke:none;stroke-width:1.67106" />
  <path
     d="m 48.894522,19.97191 a 1.214946,2.0348175 25.789392 1 1 -2.187873,-1.05716 1.214946,2.0348175 25.789392 1 1 2.187873,1.05716 z"
     id="path3676"
     style="fill:#ffffff;fill-opacity:1;stroke:none;stroke-width:1.13829" />
  <path
     d="m 47.346494,24.612355 a 0.72660196,0.54670261 14.605154 1 0 1.240841,-0.419561 0.72660196,0.54670261 14.605154 1 0 -1.240841,0.419561 z"
     id="path3678"
     style="fill:#ffffff;fill-opacity:1;stroke:none;stroke-width:0.511887" />
  <path
     d="m 37.875,15.28125 -0.3125,0.03125 c -0.554368,0.474301 -0.585589,0.295601 -0.53125,0.0625 -0.106272,0.01494 -0.207942,0.04613 -0.3125,0.0625 -0.107269,0.122346 -0.231671,0.253746 -0.40625,0.46875 L 36,16.28125 35.6875,16.40625 36,16.03125 c 0.250275,-0.308227 0.340609,-0.445242 0.375,-0.53125 -0.08386,0.01462 -0.167268,0.01571 -0.25,0.03125 -0.31082,0.208708 -0.572923,0.432662 -0.21875,0.0625 -4.936921,0.989238 -7.850001,3.608958 -9.5,6.46875 -1.797579,3.115581 -2.029597,6.586068 -1.59375,8.25 0.0019,0.0073 -0.0019,0.02405 0,0.03125 3.349102,11.901936 4.95982,20.145108 5.09375,33.65625 0.935506,0.929858 2.686692,2.00812 4.59375,2.40625 1.258091,0.26265 2.522689,0.24158 3.6875,-0.21875 0.695234,-0.71024 1.180123,-1.763798 1.6875,-2.9375 0.189794,-3.037518 1.667603,-5.263125 4.125,-6.5625 0.01177,-0.0062 0.01944,-0.02506 0.03125,-0.03125 z"
     id="path3680"
     style="color:#000000;display:inline;overflow:visible;visibility:visible;fill:url(#radialGradient3711);fill-opacity:1;fill-rule:nonzero;stroke:none;stroke-width:0.75;marker:none;enable-background:accumulate" />
  <path
     d="M 28.87537,63.281262 C 17.299191,62.967114 9.8305528,74.66666 10.665467,75.08697 c 1.386973,0.30582 2.871146,-2.98591 8.693008,-7.89252 2.639316,-2.224393 9.622318,-2.975994 9.519996,-3.756969 -0.0018,-0.05349 -6.4e-5,-0.103973 -0.0031,-0.156219 z"
     id="path3848"
     style="fill:#ffffff;fill-opacity:1;stroke:none" />
  <path
     d="M 28.96875,66.59375 C 16.663824,71.99452 12.958556,80.5931 12.84375,89 H 51.3125 C 51.3092,82.47713 50.931512,73.84202 41.5,67.09375 c -2.233365,1.96545 -5.12015,2.2846 -7.53125,1.78125 -1.946995,-0.40647 -3.679304,-1.25647 -5,-2.28125 z"
     id="path3735"
     style="color:#000000;display:inline;overflow:visible;visibility:visible;fill:#e67e71;fill-opacity:1;fill-rule:nonzero;stroke:none;stroke-width:1;marker:none;enable-background:accumulate" />
  <path
     d="M 64.390625,28.59375 C 62.764489,22.139022 60.460696,17.3736 57.96875,14.15625 55.476804,10.9389 52.748526,9.1610708 49.875,8.7499998 47.001474,8.3389288 44.039943,9.2705618 41.03125,11.25 c -3.008693,1.979438 -6.809203,6.287952 -8.828125,9.1875 3.337811,-3.318437 6.481481,-6.450366 9.359375,-8.34375 2.877894,-1.893384 5.620509,-2.7109702 8.1875,-2.3437502 2.566991,0.3672202 5.020297,1.9194982 7.40625,5.0000002 2.385953,3.080502 4.989904,7.596992 7.234375,13.84375 z"
     id="path3953"
     style="color:#000000;font-style:normal;font-variant:normal;font-weight:normal;font-stretch:normal;font-size:medium;line-height:normal;font-family:ALPHA-Demo;-inkscape-font-specification:ALPHA-Demo;text-indent:0;text-align:start;text-decoration:none;text-decoration-line:none;letter-spacing:normal;word-spacing:normal;text-transform:none;writing-mode:lr-tb;direction:ltr;text-anchor:start;display:inline;overflow:visible;visibility:visible;fill:#363433;fill-opacity:1;fill-rule:nonzero;stroke:none;stroke-width:1;marker:none;enable-background:accumulate" />
</svg>
